<?xml version="1.0" encoding="iso-8859-1"?>
<!-- Generator: Adobe Illustrator 19.0.0, SVG Export Plug-In . SVG Version: 6.00 Build 0)  -->
<svg xmlns="http://www.w3.org/2000/svg" xmlns:xlink="http://www.w3.org/1999/xlink" version="1.1" id="Layer_1" x="0px" y="0px" viewBox="0 0 511.842 511.842" style="enable-background:new 0 0 511.842 511.842;" xml:space="preserve" width="512" height="512">
<g>
	<g>
		<path style="fill:#FAFAFA;" d="M476.63,186.923h-24.121c-8.232,0-14.517-4.269-17.552-11.614v0l0,0L397.289,72.218    c-3.579-9.793-12.769-15.062-23.119-16.323l-0.001,0l0.001,0c-27.84-3.404-64.032-12.449-77.199-12.449    c-16.219,0-26.2,4.991-49.905,4.991S210.883,18.493,202.15,9.759c-8.733-8.733-51.153,9.981-76.106,9.981    c-24.953,0-52.401,16.219-52.401,37.429c0,21.21-23.705,34.934-49.905,61.134c-26.2,26.2,8.11,89.206,27.448,108.544    c19.338,19.338,44.915,23.705,74.858,11.229c29.943-12.476,40.548-6.862,54.896,7.486c14.348,14.348,14.972,34.934,32.438,52.401    c17.467,17.467,8.734,82.344,8.734,111.04s23.705,64.877,42.42,83.592c18.715,18.715,21.21,12.476,49.906,0    c28.696-12.476,51.153-72.363,77.353-98.563c26.2-26.2,21.21-64.877,21.21-87.335c0-22.457,48.658-66.125,73.611-91.077    C511.563,190.666,476.63,186.923,476.63,186.923z"/>
		<path style="fill:#FFFFFF;" d="M79.752,214.929c-20.093-20.093-60.328-89.91-28.848-121.007h-0.828    c-7.798,7.132-16.903,14.946-26.339,24.382c-26.2,26.2,8.11,89.206,27.448,108.544s44.915,23.705,74.858,11.229    c3.353-1.397,6.452-2.555,9.352-3.512C113.825,236.995,95.023,230.199,79.752,214.929z"/>
		<g>
			<path style="fill:#FFFFFF;" d="M246.552,406.799c0-29.659,8.733-96.715-8.734-114.769c-17.467-18.053-18.091-39.331-32.439-54.16     s-24.953-20.633-54.896-7.737c-1.355,0.584-2.699,1.119-4.036,1.632c15.505-2.501,24.003,3.309,34.492,13.798     c14.348,14.348,14.972,34.934,32.438,52.401c17.467,17.467,8.734,82.344,8.734,111.04s23.705,64.877,42.419,83.592     c13.948,13.948,18.892,14.031,32.383,8.006C277.188,484.991,246.552,440.032,246.552,406.799z"/>
		</g>
		<path style="fill:#FAFAFA;" d="M479.749,357.226c9.202,4.272,11.853,14.348,5.614,28.696c-6.238,14.348,16.531,40.86-5.614,63.006    c-22.146,22.146-28.072,13.1-41.172,0c-13.1-13.1-14.66-22.146-7.486-29.32c7.174-7.174,6.55-32.75,15.595-41.796    C455.732,368.766,462.282,349.116,479.749,357.226z"/>
		<path style="fill:#FFFFFF;" d="M463.577,448.927c-13.1-13.1-14.66-22.146-7.486-29.32c7.174-7.174,6.55-32.75,15.595-41.796    c4.515-4.515,8.408-11.67,13.347-16.699c-1.398-1.589-3.158-2.9-5.285-3.887c-17.467-8.11-24.017,11.541-33.062,20.586    c-9.045,9.045-8.422,34.622-15.595,41.796c-7.174,7.174-5.614,16.219,7.486,29.32c11.242,11.242,17.21,19.478,32.669,7.599    C468.866,454.357,466.387,451.737,463.577,448.927z"/>
	</g>
	<g>
		<path fill="#FFFFFF" d="M493.16,388.902c8.61-19.801,2.323-33.075-9.335-38.488c-23.454-10.889-33.959,14.521-41.522,22.085    c-10.644,10.642-11.024,37.225-15.597,41.796c-6.985,6.986-7.04,14.439-5.856,19.462c2.177,9.231,9.719,16.773,15.716,22.862    c6.679,6.783,12.987,13.19,22.269,13.227c10.625,0,21.421-9.306,28.593-17.152c2.799-3.054,2.592-7.798-0.463-10.596    c-3.053-2.797-7.798-2.591-10.596,0.463c-0.323,0.352-0.654,0.704-1.005,1.054c-12.171,12.172-16.573,11.259-16.471,11.231    c-3.617-0.014-8.501-5.638-14.094-11.23c-13.099-13.1-9.308-16.892-7.485-18.713c9.101-9.103,8.824-35.026,15.596-41.797    c2.657-2.657,4.978-5.868,7.222-8.974c7.741-10.713,10.774-13.179,17.378-10.112c6.955,3.229,4.87,12.062,1.896,18.902    c-4.786,11.004,1.556,23.755,3.282,36.716c0.547,4.105,4.319,6.992,8.425,6.444c4.105-0.547,6.991-4.318,6.444-8.425    C495.999,405.979,491.063,393.728,493.16,388.902z"/>
		<path fill="#FFFFFF" d="M421.419,306.688c0-16.072,37.154-52.288,59.353-73.926c11.226-10.944,27.378-23.888,22.319-38.215    c-4.343-12.304-21.373-14.729-24.743-15.09c-0.751-0.08,0.36-0.028-24.921-0.042c-7.618,0-10.051-5.468-10.44-6.507    l-16.469-45.075c-1.422-3.891-5.728-5.893-9.619-4.471c-3.891,1.421-5.892,5.728-4.471,9.618    c3.059,8.372-8.208-22.463,16.49,45.129c2.815,7.521,10.924,16.305,24.509,16.305h23.69c4.811,0.602,11.086,3.018,11.829,5.125    c3.075,8.712-82.527,72.373-82.527,107.148c0,22.317,4.669,58.348-19.014,82.031c-26.387,26.389-49.538,85.9-75.04,96.988    c-14.962,6.504-23.344,11.549-28.112,11.169c-11.103-0.868-53.722-51.983-53.722-87.883c0-10.812,1.503-30.618,1.996-47.67    c0.12-4.141-3.14-7.594-7.281-7.714c-4.144-0.116-7.594,3.14-7.713,7.28c-0.516,17.887-2.001,36.112-2.001,48.104    c0,32.487,26.682,70.961,44.616,88.896c18.092,18.09,25.757,16.597,46.714,6.8c21.692-10.137,28.028-9.354,61.304-63.264    c9.715-15.738,19.76-32.012,29.849-42.1C425.63,371.709,421.419,333.765,421.419,306.688z"/>
		<path fill="#FFFFFF" d="M225.167,338.514c4.129-0.324,7.214-3.936,6.889-8.064c-1.476-18.766-5.434-30.776-12.455-37.799    c-16.275-16.274-16.743-36.705-32.439-52.4c-16.925-16.925-30.682-22.607-63.084-9.105c-26.727,11.136-49.157,7.904-66.67-9.609    c-20.221-20.221-48.025-77.361-27.448-97.938C56.754,96.803,82.062,82.387,82.062,57.16c0-16.579,24.563-29.929,44.9-29.929    c22.582,0,63.152-15.315,71.001-11.975c8.02,8.382,22.072,40.67,50.02,40.67c13.602,0,22.902-1.569,31.108-2.953    c26.72-4.508,18.715-1.659,96.247,10.49c3.029,0.451,12.622,2.557,15.824,11.318l10.931,29.917    c1.422,3.891,5.726,5.894,9.619,4.471c3.891-1.421,5.892-5.728,4.471-9.618l-10.932-29.918    c-4.579-12.53-16.615-19.689-28.068-21.056c-77.263-12.126-70.882-15.404-100.586-10.395c-7.998,1.349-16.269,2.744-28.614,2.744    c-19.053,0-30.211-27.081-39.612-36.48c-13.407-13.41-54.562,7.784-81.409,7.784c-27.499,0-59.9,18.066-59.9,44.929    c0,17.089-22.511,30.633-47.709,55.831c-29.722,29.722,4.63,96.332,27.448,119.15c21.912,21.913,50.628,26.355,83.046,12.849    c27.547-11.479,34.959-5.882,46.708,5.866c12.812,12.813,13.957,33.92,32.438,52.4c2.91,2.91,6.679,10.194,8.108,28.368    C217.426,335.748,221.027,338.838,225.167,338.514z"/>
	</g>
</g>















</svg>
